<?xml version="1.0" encoding="UTF-8" standalone="no"?>
<svg
   xmlns:dc="http://purl.org/dc/elements/1.1/"
   xmlns:cc="http://creativecommons.org/ns#"
   xmlns:rdf="http://www.w3.org/1999/02/22-rdf-syntax-ns#"
   xmlns:svg="http://www.w3.org/2000/svg"
   xmlns="http://www.w3.org/2000/svg"
   xmlns:sodipodi="http://sodipodi.sourceforge.net/DTD/sodipodi-0.dtd"
   xmlns:inkscape="http://www.inkscape.org/namespaces/inkscape"
   style="height: 512px; width: 512px;"
   viewBox="0 0 512 512"
   version="1.1"
   id="svg6"
   sodipodi:docname="qco-selected.svg"
   inkscape:version="1.0.2 (e86c870879, 2021-01-15)">
  <metadata
     id="metadata12">
    <rdf:RDF>
      <cc:Work
         rdf:about="">
        <dc:format>image/svg+xml</dc:format>
        <dc:type
           rdf:resource="http://purl.org/dc/dcmitype/StillImage" />
        <dc:title></dc:title>
      </cc:Work>
    </rdf:RDF>
  </metadata>
  <defs
     id="defs10" />
  <sodipodi:namedview
     pagecolor="#ffffff"
     bordercolor="#666666"
     borderopacity="1"
     objecttolerance="10"
     gridtolerance="10"
     guidetolerance="10"
     inkscape:pageopacity="0"
     inkscape:pageshadow="2"
     inkscape:window-width="1284"
     inkscape:window-height="933"
     id="namedview8"
     showgrid="false"
     inkscape:zoom="1.4824219"
     inkscape:cx="256"
     inkscape:cy="256"
     inkscape:window-x="357"
     inkscape:window-y="33"
     inkscape:window-maximized="0"
     inkscape:current-layer="svg6" />
  <path
     id="path2"
     style="fill:#ffffff;stroke:#ffffff"
     d="M 41 73 L 41 377.5625 L 88.697266 151 L 423 151 L 423 121 L 185.51367 121 L 169.51367 73 L 41 73 z M 103.30273 169 L 43.091797 455 L 424.69727 455 L 484.9082 169 L 103.30273 169 z M 133.83203 205.76953 L 135.88281 205.81055 C 146.78646 205.81055 156.80664 217.67131 156.80664 233.69727 C 156.80664 241.78056 154.08012 249.02363 150.05859 254.0625 L 145.08789 260.28906 L 152.96289 261.50977 C 159.09704 262.4602 163.28723 265.33031 166.75391 269.97656 C 170.21933 274.62324 172.7351 281.16202 174.39453 288.75781 C 177.40464 302.53308 177.59602 319.45603 177.60742 334.35156 L 160.32031 334.35156 L 155.9082 401.21094 C 143.71402 403.95759 130.19651 404.05923 117.53516 401.20117 L 112.54883 334.35156 L 94.392578 334.35156 C 94.508628 319.63646 95.24067 302.9434 98.5625 289.27148 C 100.39729 281.72524 103.01512 275.1766 106.43945 270.47656 C 109.86378 265.77694 113.86835 262.89037 119.33203 261.86328 L 127.04883 260.41211 L 122.0332 254.37109 C 117.82997 249.30596 114.96289 241.9809 114.96289 233.69727 C 114.96289 218.66536 123.93556 207.05498 133.83203 205.76953 z M 253.83203 205.76953 L 255.88281 205.81055 C 266.78646 205.81055 276.80664 217.67131 276.80664 233.69727 C 276.80664 241.78056 274.08012 249.02363 270.05859 254.0625 L 265.08789 260.28906 L 272.96289 261.50977 C 279.09704 262.4602 283.28723 265.33031 286.75391 269.97656 C 290.21933 274.62324 292.7351 281.16202 294.39453 288.75781 C 297.40464 302.53308 297.59602 319.45603 297.60742 334.35156 L 280.32031 334.35156 L 275.9082 401.21094 C 263.71402 403.95759 250.19651 404.05923 237.53516 401.20117 L 232.54883 334.35156 L 214.39258 334.35156 C 214.50863 319.63646 215.24067 302.9434 218.5625 289.27148 C 220.39729 281.72524 223.01512 275.1766 226.43945 270.47656 C 229.86378 265.77694 233.86835 262.89037 239.33203 261.86328 L 247.04883 260.41211 L 242.0332 254.37109 C 237.82997 249.30596 234.96289 241.9809 234.96289 233.69727 C 234.96289 218.66536 243.93556 207.05498 253.83203 205.76953 z M 373.83203 205.76953 L 375.88281 205.81055 C 386.78646 205.81055 396.80664 217.67131 396.80664 233.69727 C 396.80664 241.78056 394.08012 249.02363 390.05859 254.0625 L 385.08789 260.28906 L 392.96289 261.50977 C 399.09704 262.4602 403.28723 265.33031 406.75391 269.97656 C 410.21933 274.62324 412.7351 281.16202 414.39453 288.75781 C 417.40464 302.53308 417.59602 319.45603 417.60742 334.35156 L 400.32031 334.35156 L 395.9082 401.21094 C 383.71402 403.95759 370.19651 404.05923 357.53516 401.20117 L 352.54883 334.35156 L 334.39258 334.35156 C 334.50863 319.63646 335.24067 302.9434 338.5625 289.27148 C 340.39729 281.72524 343.01512 275.1766 346.43945 270.47656 C 349.86378 265.77694 353.86835 262.89037 359.33203 261.86328 L 367.04883 260.41211 L 362.0332 254.37109 C 357.82997 249.30596 354.96289 241.9809 354.96289 233.69727 C 354.96289 218.66536 363.93556 207.05498 373.83203 205.76953 z " />
</svg>
