<?xml version="1.0" encoding="UTF-8" standalone="no"?>
<svg
   xmlns:dc="http://purl.org/dc/elements/1.1/"
   xmlns:cc="http://creativecommons.org/ns#"
   xmlns:rdf="http://www.w3.org/1999/02/22-rdf-syntax-ns#"
   xmlns:svg="http://www.w3.org/2000/svg"
   xmlns="http://www.w3.org/2000/svg"
   xmlns:sodipodi="http://sodipodi.sourceforge.net/DTD/sodipodi-0.dtd"
   xmlns:inkscape="http://www.inkscape.org/namespaces/inkscape"
   style="height: 512px; width: 512px;"
   viewBox="0 0 512 512"
   version="1.1"
   id="svg6"
   sodipodi:docname="qco-selected.svg"
   inkscape:version="1.0.2 (e86c870879, 2021-01-15)">
  <metadata
     id="metadata12">
    <rdf:RDF>
      <cc:Work
         rdf:about="">
        <dc:format>image/svg+xml</dc:format>
        <dc:type
           rdf:resource="http://purl.org/dc/dcmitype/StillImage" />
        <dc:title></dc:title>
      </cc:Work>
    </rdf:RDF>
  </metadata>
  <defs
     id="defs10" />
  <sodipodi:namedview
     pagecolor="#ffffff"
     bordercolor="#666666"
     borderopacity="1"
     objecttolerance="10"
     gridtolerance="10"
     guidetolerance="10"
     inkscape:pageopacity="0"
     inkscape:pageshadow="2"
     inkscape:window-width="1284"
     inkscape:window-height="933"
     id="namedview8"
     showgrid="false"
     inkscape:zoom="1.4824219"
     inkscape:cx="256"
     inkscape:cy="256"
     inkscape:window-x="357"
     inkscape:window-y="33"
     inkscape:window-maximized="0"
     inkscape:current-layer="svg6" />
  <path
     d="m 253.83253,205.77044 c -9.89647,1.28545 -18.87005,12.8943 -18.87005,27.92621 0,8.28363 2.8678,15.61005 7.07103,20.67518 l 5.01473,6.04097 -7.71566,1.45021 c -5.46368,1.02709 -9.46954,3.91352 -12.89387,8.61314 -3.42433,4.70004 -6.04224,11.24841 -7.87703,18.79465 -3.32183,13.67192 -4.05244,30.36496 -4.16849,45.08006 h 18.15638 l 4.9855,66.8501 c 12.66135,2.85806 26.17953,2.75725 38.37371,0.0106 l 4.41076,-66.86026 h 17.28727 c -0.0114,-14.89553 -0.20203,-31.81898 -3.21214,-45.59425 -1.65943,-7.59579 -4.17527,-14.13442 -7.64069,-18.7811 -3.46668,-4.64625 -7.65763,-7.51574 -13.79178,-8.46617 l -7.87448,-1.2198 4.97068,-6.22775 c 4.02153,-5.03887 6.74786,-12.28143 6.74786,-20.36472 0,-16.02596 -10.01887,-27.88767 -20.92252,-27.88767 z"
     fill="#fff"
     fill-opacity="1"
     id="path26"
     style="fill:#ffffff;stroke-width:2.36104" />
  <path
     d="m 373.83253,205.77044 c -9.89647,1.28545 -18.87005,12.8943 -18.87005,27.92621 0,8.28363 2.8678,15.61005 7.07103,20.67518 l 5.01473,6.04097 -7.71566,1.45021 c -5.46368,1.02709 -9.46954,3.91352 -12.89387,8.61314 -3.42433,4.70004 -6.04224,11.24841 -7.87703,18.79465 -3.32183,13.67192 -4.05244,30.36496 -4.16849,45.08006 h 18.15638 l 4.9855,66.8501 c 12.66135,2.85806 26.17953,2.75725 38.37371,0.0106 l 4.41076,-66.86026 h 17.28727 c -0.0114,-14.89553 -0.20203,-31.81898 -3.21214,-45.59425 -1.65943,-7.59579 -4.17527,-14.13442 -7.64069,-18.7811 -3.46668,-4.64625 -7.65763,-7.51574 -13.79178,-8.46617 l -7.87448,-1.2198 4.97068,-6.22775 c 4.02153,-5.03887 6.74786,-12.28143 6.74786,-20.36472 0,-16.02596 -10.01887,-27.88767 -20.92252,-27.88767 z"
     fill="#fff"
     fill-opacity="1"
     id="path877"
     style="fill:#ffffff;stroke-width:2.36104" />
  <path
     d="m 133.83253,205.77044 c -9.89647,1.28545 -18.87005,12.8943 -18.87005,27.92621 0,8.28363 2.8678,15.61005 7.07103,20.67518 l 5.01473,6.04097 -7.71566,1.45021 c -5.46368,1.02709 -9.46954,3.91352 -12.89387,8.61314 -3.42433,4.70004 -6.04224,11.24841 -7.87703,18.79465 -3.32183,13.67192 -4.05244,30.36496 -4.16849,45.08006 h 18.15638 l 4.9855,66.8501 c 12.66135,2.85806 26.17953,2.75725 38.37371,0.0106 l 4.41076,-66.86026 h 17.28727 c -0.0114,-14.89553 -0.20203,-31.81898 -3.21214,-45.59425 -1.65943,-7.59579 -4.17527,-14.13442 -7.64069,-18.7811 -3.46668,-4.64625 -7.65763,-7.51574 -13.79178,-8.46617 l -7.87448,-1.2198 4.97068,-6.22775 c 4.02153,-5.03887 6.74786,-12.28143 6.74786,-20.36472 0,-16.02596 -10.01887,-27.88767 -20.92252,-27.88767 z"
     fill="#fff"
     fill-opacity="1"
     id="path879"
     style="fill:#ffffff;stroke-width:2.36104" />
  <rect
     style="fill:none;stroke:#ffffff;stroke-width:7.7;stroke-linejoin:round;stroke-miterlimit:4;stroke-dasharray:none"
     id="rect901"
     width="101.18578"
     height="215.1884"
     x="205.4071"
     y="197.64954"
     ry="1.0429174e-05" />
  <rect
     style="fill:none;stroke:#ffffff;stroke-width:7.7;stroke-linejoin:round;stroke-miterlimit:4;stroke-dasharray:none"
     id="rect903"
     width="101.18578"
     height="215.1884"
     x="325.4071"
     y="197.64954"
     ry="1.0429174e-05" />
  <rect
     style="fill:none;stroke:#ffffff;stroke-width:7.7;stroke-linejoin:round;stroke-miterlimit:4;stroke-dasharray:none"
     id="rect905"
     width="101.18578"
     height="215.1884"
     x="85.407097"
     y="197.64954"
     ry="1.0429174e-05" />
</svg>
